HIERARCHY
ROOT Hips
{
	OFFSET -3.958830 18.904000 13.208200
	CHANNELS 6 Xposition Yposition Zposition Zrotation Yrotation Xrotation 
	JOINT LHipJoint
	{
		OFFSET 0.000000 0.000000 0.000000
		CHANNELS 3 Zrotation Yrotation Xrotation
		JOINT LeftUpLeg
		{
			OFFSET 1.800000 -1.400000 0.085000
			CHANNELS 3 Zrotation Yrotation Xrotation
			JOINT LeftLeg
			{
				OFFSET 2.215000 -6.000000 0.000000
				CHANNELS 3 Zrotation Yrotation Xrotation
				JOINT LeftFoot
				{
					OFFSET 2.500000 -6.900000 0.000000
					CHANNELS 3 Zrotation Yrotation Xrotation
					JOINT LeftToeBase
					{
						OFFSET 0.200000 -0.500000 1.950000
						CHANNELS 3 Zrotation Yrotation Xrotation
						End Site
						{
							OFFSET 0.000000 0.000000 0.000000
						}
					}
				}
			}
		}
	}
	JOINT RHipJoint
	{
		OFFSET 0.000000 0.000000 0.000000
		CHANNELS 3 Zrotation Yrotation Xrotation
		JOINT RightUpLeg
		{
			OFFSET -1.800000 -1.400000 0.085000
			CHANNELS 3 Zrotation Yrotation Xrotation
			JOINT RightLeg
			{
				OFFSET -2.215000 -6.000000 0.000000
				CHANNELS 3 Zrotation Yrotation Xrotation
				JOINT RightFoot
				{
					OFFSET -2.500000 -6.900000 0.000000
					CHANNELS 3 Zrotation Yrotation Xrotation
					JOINT RightToeBase
					{
						OFFSET -0.200000 -0.500000 1.950000
						CHANNELS 3 Zrotation Yrotation Xrotation
						End Site
						{
							OFFSET 0.000000 0.000000 0.000000
						}
					}
				}
			}
		}
	}
	JOINT LowerBack
	{
		OFFSET 0.000000 0.000000 0.000000
		CHANNELS 3 Zrotation Yrotation Xrotation
		JOINT Spine
		{
			OFFSET -0.087000 1.940000 -0.288900
			CHANNELS 3 Zrotation Yrotation Xrotation
			JOINT Spine1
			{
				OFFSET 0.000000 1.950000 0.060000
				CHANNELS 3 Zrotation Yrotation Xrotation
				JOINT Neck
				{
					OFFSET 0.000000 0.000000 0.000000
					CHANNELS 3 Zrotation Yrotation Xrotation
					JOINT Neck1
					{
						OFFSET 0.000000 1.600000 0.340000
						CHANNELS 3 Zrotation Yrotation Xrotation
						JOINT Head
						{
							OFFSET 0.000000 1.667000 -0.240000
							CHANNELS 3 Zrotation Yrotation Xrotation
							End Site
							{
								OFFSET 0.000000 0.000000 0.000000
							}
						}
					}
				}
				JOINT LeftShoulder
				{
					OFFSET 0.000000 0.000000 0.000000
					CHANNELS 3 Zrotation Yrotation Xrotation
					JOINT LeftArm
					{
						OFFSET 2.700000 1.550000 -0.730000
						CHANNELS 3 Zrotation Yrotation Xrotation
						JOINT LeftForeArm
						{
							OFFSET 5.450000 0.000000 0.000000
							CHANNELS 3 Zrotation Yrotation Xrotation
							JOINT LeftHand
							{
								OFFSET 3.450000 0.000000 0.000000
								CHANNELS 3 Zrotation Yrotation Xrotation
								JOINT LeftHandIndex1
								{
									OFFSET 0.750000 0.000000 0.000000
									CHANNELS 3 Zrotation Yrotation Xrotation
									End Site
									{
										OFFSET 0.000000 0.000000 0.000000
									}
								}
							}
						}
					}
				}
				JOINT RightShoulder
				{
					OFFSET 0.000000 0.000000 0.000000
					CHANNELS 3 Zrotation Yrotation Xrotation
					JOINT RightArm
					{
						OFFSET -2.700000 1.550000 -0.730000
						CHANNELS 3 Zrotation Yrotation Xrotation
						JOINT RightForeArm
						{
							OFFSET -5.450000 0.000000 0.000000
							CHANNELS 3 Zrotation Yrotation Xrotation
							JOINT RightHand
							{
								OFFSET -3.450000 0.000000 0.000000
								CHANNELS 3 Zrotation Yrotation Xrotation
								JOINT RightHandIndex1
								{
									OFFSET -0.750000 0.000000 0.000000
									CHANNELS 3 Zrotation Yrotation Xrotation
									End Site
									{
										OFFSET 0.000000 0.000000 0.000000
									}
								}
							}
						}
					}
				}
			}
		}
	}
}
MOTION
Frames: 5
Frame Time: 0.016667
0.002130 23.032180 -7.653630 17.436673 -2.977462 -118.152740 -13.067861 14.195288 2.475482 -2.141256 12.241770 70.922619 -12.907414 54.831106 93.940195 7.234776 16.219952 0.166771 3.218940 3.714780 3.012090 21.948721 -3.585503 2.130676 6.324817 -15.771035 74.526356 -9.546207 -31.460285 113.331644 -3.648632 -10.787050 2.001930 1.873810 -4.422220 0.024350 -10.161530 15.552824 -16.614661 16.404499 -80.945453 166.991590 -70.425539 -33.176169 53.326506 15.507828 30.867024 20.008006 61.820351 0.737276 7.360774 -26.371450 -4.489910 -64.333850 45.315237 -84.705760 23.937648 45.429456 37.346192 -43.198103 107.098046 -26.268697 4.973602 -10.737399 -0.469297 -2.023460 -0.512300 1.269490 -0.842140 -46.875783 54.311036 2.959716 139.104712 -46.973070 -167.902107 -170.661636 61.955809 -38.655569 3.291702 3.826725 3.257460 -1.851170 -2.097310 -1.636700 
0.221360 25.280780 -3.915980 -3.129572 -14.193731 30.007565 -21.429298 19.625771 16.822651 46.698785 -22.916848 -95.179413 -61.606457 51.410612 62.047381 9.162632 17.351654 0.970913 1.021160 1.130290 0.381650 10.323887 0.137594 15.254203 -41.188272 38.055390 -94.520933 54.478631 -48.823052 74.496224 -4.667481 -17.192134 1.286544 0.488550 -3.213650 -0.380260 16.136271 -43.056554 -41.927434 56.071375 -7.858467 31.310054 -32.467156 31.265120 -58.935551 2.199123 17.606721 -121.370102 -13.077723 24.577572 119.749728 8.572710 11.970030 80.962240 -147.948145 77.735872 167.519873 161.097610 -73.660857 -109.125063 113.491371 -34.322030 -43.655916 -5.557749 4.034262 -2.538460 -0.056180 0.170100 -0.270450 -30.968514 -84.005381 -13.844832 -121.291094 68.270038 -113.114849 -138.852674 42.820537 -43.762233 5.746846 -2.528289 2.672880 -2.058600 -1.416010 -1.167620 
0.676770 25.228480 -3.613860 -13.211395 -14.842656 30.742738 -21.602657 22.048246 20.590763 61.810542 -17.705587 -97.374590 -68.633596 51.556055 54.188152 9.766349 15.599607 1.622956 1.622970 1.518200 1.129930 9.107590 -0.104646 17.488570 -39.651081 43.303397 -97.281781 76.385344 -39.967185 60.914553 -4.346091 -14.659233 1.695397 0.387260 -3.724150 0.174260 17.629034 -44.477896 -49.694317 34.069102 -28.898528 47.828422 -51.683162 31.797680 -129.800044 15.177708 -3.383692 -81.764176 -0.232643 -17.617957 115.932968 -12.994730 13.017720 82.146790 93.294817 46.236969 -9.041193 126.337036 -76.507656 -63.976829 109.917863 -32.097589 -40.790518 -4.424169 4.853723 -2.938660 -0.160720 0.557490 -0.071780 -56.148022 -13.245991 -15.477961 35.264715 40.933118 127.002527 -117.722911 1.267562 -45.198518 1.615000 -7.190474 3.380720 -2.717490 -2.142970 -0.890050 
0.489110 24.958800 -3.415740 -14.359152 -13.294514 45.120362 -23.828785 19.997210 16.413688 69.582606 -7.326353 -100.359484 -90.717833 40.858956 35.010716 9.608110 12.589714 2.143206 1.938920 2.098390 1.320520 9.821992 4.193408 14.418573 -52.777146 34.066989 -108.773535 87.964076 -34.950653 51.157141 -4.069419 -12.953368 1.969744 0.604790 -3.845020 0.223130 19.087600 -47.990252 -40.050225 45.162928 -18.961396 31.474085 -38.999475 49.346736 -124.980254 14.402113 1.877326 -63.702786 6.277169 -17.205429 107.485991 -14.647760 16.009560 77.044330 84.073060 27.837376 -10.727877 113.454669 -54.588670 -21.488829 120.462672 -55.308610 -47.777718 -1.735519 3.074038 -3.179620 -0.195300 0.720900 0.048120 -33.577006 -20.553849 9.842538 -75.135356 46.907741 -1.510401 -113.979875 49.429729 -43.751603 2.591085 -3.088916 3.660990 -2.842680 -2.496140 -0.681000 
0.071810 24.783450 -3.328530 -12.510474 -14.606290 48.879096 -21.927034 20.017926 17.244076 71.668489 -3.051344 -98.556961 -101.208463 29.456237 23.767178 9.465173 11.235883 2.421652 1.730540 2.226930 0.669590 11.307669 3.585408 16.111556 -63.961770 30.477316 -116.205566 93.523660 -31.859069 49.631832 -3.995166 -12.825310 1.983963 0.734910 -3.376890 0.376570 14.985146 -45.032463 -39.560834 44.547380 -21.221577 26.360325 -34.579606 43.380886 -128.148171 8.310543 2.349082 -56.173040 14.227810 -16.938670 100.583152 -0.250640 8.629790 78.271170 83.008132 14.531834 -22.283013 104.716410 -64.039000 -8.077432 118.655308 -59.069460 -48.873366 -0.198828 3.578530 -3.313140 0.036120 0.637990 0.309720 -33.677178 -12.271196 -7.728653 -87.468083 57.656909 -9.113556 -112.164644 74.646107 -39.245555 1.049384 -1.413176 3.601670 -2.817090 -2.400230 -0.394830 
